:SAMPLES-PER-SECOND 30
:FULLY-SPECIFIED
:DEGREES
386
root  -5.48586 38.6825 20.1018 -4.21832 80.2027 -0.194214
RightUpLeg  -14.6395 -2.51048 -8.35883
RightLeg  15.6869 9.26902 2.36716
RightFoot  2.02006 -0.867371 7.5237
RightToes  4.01633e-009 0 -3.6325e-017
Spine  8.42298 -1.07081 8.80838
Spine1  8.39745 1.15945 -7.05085
HEad  -12.6022 10.0406 -10.1903
LeftShoulder1  -0.0733699 3.7034 -30.625
LeftArm  -8.5537 12.0528 -37.2346
LeftForeArm  17.4882 -15.3826 -4.66134
LeftHand  -0.0783124 2.94078 3.0527
RightShoulder  -0.596725 -5.28162 26.8286
RightArm  10.349 -3.64963 47.1905
RightForeArm  4.70919 11.7224 5.66968
RightHand  -0.526362 2.68782 -7.77637
LeftUpLeg  12.6122 -15.7609 -4.23253
LeftLeg  19.9334 -12.7071 -4.768
LeftFoot  -17.9466 0.702801 10.2561
LeftToes  -1.95724e-009 9.62483e-011 3.51777e-011
387
root  -4.80164 38.8491 20.6957 -8.39041 82.6383 -5.04062
RightUpLeg  -13.3888 -5.00201 -7.23752
RightLeg  15.7323 9.21481 2.23516
RightFoot  0.562964 -0.731517 7.04192
RightToes  4.01633e-009 0 -3.6325e-017
Spine  7.32957 -1.16963 9.89962
Spine1  8.66608 0.725891 -5.17078
HEad  -10.0541 9.28376 -10.4264
LeftShoulder1  -0.175612 3.97948 -30.8022
LeftArm  -9.4898 12.8554 -37.5528
LeftForeArm  19.9462 -11.5347 -5.22529
LeftHand  -0.0516013 3.52508 2.13879
RightShoulder  -0.606288 -5.3102 26.8331
RightArm  11.335 -3.70079 46.4887
RightForeArm  4.77267 12.9209 5.59739
RightHand  -0.520233 3.04579 -7.36737
LeftUpLeg  11.2526 -16.1285 -2.32823
LeftLeg  22.8824 -13.3991 -5.82572
LeftFoot  -16.112 0.402764 7.24277
LeftToes  -1.95724e-009 9.62483e-011 3.51777e-011
388
root  -4.19217 39.0223 21.2559 -14.0127 84.5964 -11.6545
RightUpLeg  -12.5475 -6.92971 -6.1456
RightLeg  15.2483 8.98134 1.97064
RightFoot  -0.531069 -0.605921 6.36223
RightToes  4.01633e-009 0 -3.6325e-017
Spine  6.55304 -0.919377 10.9709
Spine1  8.18645 0.762997 -3.76957
HEad  -8.124 8.68092 -9.77965
LeftShoulder1  -0.161893 3.94324 -30.7101
LeftArm  -9.03518 14.2781 -38.0887
LeftForeArm  21.6013 -9.45517 -5.73803
LeftHand  -0.0343508 4.2857 1.30062
RightShoulder  -0.588697 -5.27185 26.5556
RightArm  11.7438 -3.92416 46.2081
RightForeArm  4.18334 13.5509 5.54276
RightHand  -0.596638 3.47425 -8.04766
LeftUpLeg  8.3655 -14.6232 0.142229
LeftLeg  27.1526 -14.1271 -7.43549
LeftFoot  -13.1137 0.131485 3.19609
LeftToes  -1.95724e-009 9.62483e-011 3.51777e-011
389
root  -3.62404 39.1804 21.7549 -27.0835 86.6458 -25.3632
RightUpLeg  -11.411 -8.38805 -5.66533
RightLeg  14.6918 8.24276 1.76739
RightFoot  -1.52262 -0.520831 5.9368
RightToes  4.01633e-009 0 -3.6325e-017
Spine  6.60235 -1.05169 12.0097
Spine1  7.19033 0.679673 -3.35737
HEad  -6.63234 8.10236 -8.80079
LeftShoulder1  -0.12291 3.84216 -30.2238
LeftArm  -8.72748 16.7543 -38.683
LeftForeArm  23.826 -9.55336 -5.80444
LeftHand  -0.0158803 4.02523 -0.540189
RightShoulder  -0.588902 -5.28586 26.3039
RightArm  12.0383 -3.9144 46.3707
RightForeArm  4.13319 14.1743 5.43872
RightHand  -0.529023 2.68497 -7.78794
LeftUpLeg  5.05173 -11.9572 2.25167
LeftLeg  32.0956 -13.7878 -8.82019
LeftFoot  -8.82151 0.0650377 -0.389013
LeftToes  -1.95724e-009 9.62483e-011 3.51777e-011
390
root  -3.10149 39.3078 22.236 -25.4962 89.0414 -23.8284
RightUpLeg  -9.82444 -9.68682 -5.76506
RightLeg  14.344 7.12854 1.81082
RightFoot  -2.54232 -0.424407 5.28057
RightToes  4.01633e-009 0 -3.6325e-017
Spine  6.18721 -0.993222 12.4496
Spine1  8.09442 0.729834 -2.76198
HEad  -6.07449 6.11101 -8.64393
LeftShoulder1  -0.0296135 3.58503 -30.3278
LeftArm  -7.74759 17.8485 -38.9383
LeftForeArm  25.7205 -10.5361 -5.9889
LeftHand  0.00508415 3.58642 -1.70774
RightShoulder  -0.583164 -5.27426 26.1935
RightArm  13.0034 -3.26563 46.1382
RightForeArm  1.4672 15.1759 5.44744
RightHand  -0.651798 3.49437 -8.75572
LeftUpLeg  1.87729 -9.59711 3.16674
LeftLeg  37.2301 -11.0237 -8.49949
LeftFoot  -3.68378 0.204041 -2.81145
LeftToes  -1.95724e-009 9.62483e-011 3.51777e-011
391
root  -2.62194 39.372 22.6429 -135.105 88.3997 -133.437
RightUpLeg  -8.60095 -10.4689 -5.81622
RightLeg  14.4189 5.83307 1.91996
RightFoot  -3.53584 -0.321019 4.35251
RightToes  4.01633e-009 0 -3.6325e-017
Spine  7.09446 -1.07277 13.6098
Spine1  7.34528 0.994933 -3.25267
HEad  -6.17427 4.71624 -8.37541
LeftShoulder1  -0.0352484 3.60069 -30.287
LeftArm  -5.76497 19.4947 -39.0575
LeftForeArm  25.9703 -12.5581 -6.08782
LeftHand  0.0123524 2.67548 -1.16964
RightShoulder  -0.641748 -5.4457 26.3391
RightArm  14.3366 -2.79262 45.4565
RightForeArm  1.37329 16.9186 5.18149
RightHand  -0.548041 3.12826 -7.69889
LeftUpLeg  -1.27656 -7.34073 3.40436
LeftLeg  41.92 -6.39705 -5.71244
LeftFoot  0.871626 0.336757 -3.22364
LeftToes  -1.95724e-009 9.62483e-011 3.51777e-011
392
root  -2.19086 39.4088 23.0159 -165.098 86.6931 -163.694
RightUpLeg  -7.87379 -10.6111 -5.40963
RightLeg  14.5675 4.01885 1.76173
RightFoot  -4.31482 -0.250779 3.60409
RightToes  4.01633e-009 0 -3.6325e-017
Spine  7.06162 -1.05329 14.8243
Spine1  7.92005 1.21064 -3.46511
HEad  -6.68222 3.67378 -8.04282
LeftShoulder1  -0.142383 3.88993 -30.6521
LeftArm  -4.3813 20.0972 -39.5665
LeftForeArm  24.5205 -14.4652 -5.7416
LeftHand  0.00725097 1.93964 -0.599612
RightShoulder  -0.686988 -5.57503 26.4855
RightArm  16.3127 -1.12165 44.683
RightForeArm  0.467502 18.04 5.17546
RightHand  -0.527208 3.24071 -7.31596
LeftUpLeg  -4.59807 -4.77927 3.72255
LeftLeg  45.8386 -1.36875 -1.11705
LeftFoot  2.62416 0.258888 -2.23876
LeftToes  -1.95724e-009 9.62483e-011 3.51777e-011
393
root  -1.73373 39.5086 23.374 -176.935 84.7453 -175.654
RightUpLeg  -6.70969 -11.0716 -5.79132
RightLeg  14.3611 2.45166 1.67422
RightFoot  -5.02048 -0.199479 2.99628
RightToes  4.01633e-009 0 -3.6325e-017
Spine  7.02098 -0.988662 14.7738
Spine1  8.44486 1.25239 -3.53704
HEad  -7.11918 2.56286 -8.18492
LeftShoulder1  -0.241737 4.15289 -31.1094
LeftArm  -2.98904 20.276 -40.223
LeftForeArm  22.0096 -16.1681 -5.39712
LeftHand  -0.0309945 2.03478 0.731773
RightShoulder  -0.615915 -5.37657 26.1674
RightArm  17.4089 -0.097778 44.3759
RightForeArm  -0.383296 18.9799 5.11301
RightHand  -0.579469 3.25922 -7.99945
LeftUpLeg  -7.45739 -2.91031 2.8657
LeftLeg  48.4389 1.31193 1.9811
LeftFoot  2.33815 -0.037284 0.197228
LeftToes  -1.95724e-009 9.62483e-011 3.51777e-011
394
root  -1.29793 39.5902 23.6783 177.064 82.4893 178.165
RightUpLeg  -5.52676 -11.629 -6.35705
RightLeg  14.0119 0.770461 1.60219
RightFoot  -5.83192 -0.174683 2.80618
RightToes  4.01633e-009 0 -3.6325e-017
Spine  7.29033 -0.944112 14.937
Spine1  8.07732 1.40297 -4.1379
HEad  -5.8588 1.85817 -7.78434
LeftShoulder1  -0.133181 3.86542 -30.7318
LeftArm  -2.38481 20.1832 -41.2821
LeftForeArm  21.6176 -16.6453 -5.31846
LeftHand  -0.00279824 1.16648 -0.117855
RightShoulder  -0.651546 -5.47093 26.4288
RightArm  18.3573 0.677876 43.5174
RightForeArm  -0.125856 19.4295 5.06959
RightHand  -0.468193 2.22679 -7.33229
LeftUpLeg  -10.0364 -1.52533 1.71459
LeftLeg  49.0197 1.11597 1.80675
LeftFoot  1.34839 -0.0258653 0.154298
LeftToes  -1.95724e-009 9.62483e-011 3.51777e-011
395
root  -0.840202 39.6299 23.9754 175.24 79.7737 175.892
RightUpLeg  -4.892 -11.9162 -6.5404
RightLeg  14.3032 -1.5609 1.1531
RightFoot  -6.86444 -0.154507 2.76137
RightToes  4.01633e-009 0 -3.6325e-017
Spine  6.76661 -0.78347 14.9492
Spine1  8.37512 1.47235 -4.24672
HEad  -4.20595 -0.0752841 -7.89952
LeftShoulder1  -0.113739 3.81277 -30.7161
LeftArm  -1.18202 19.2489 -41.9715
LeftForeArm  22.3713 -17.334 -5.18171
LeftHand  0.0458046 1.09722 -1.41769
RightShoulder  -0.678681 -5.57283 26.1201
RightArm  18.7663 1.24 43.2281
RightForeArm  -1.20418 18.9846 5.23547
RightHand  -0.478946 2.2562 -7.45991
LeftUpLeg  -12.5967 -1.07457 0.552331
LeftLeg  47.92 -0.56954 -0.239149
LeftFoot  0.351696 0.0832465 -0.844651
LeftToes  -1.95724e-009 9.62483e-011 3.51777e-011
